#!OML:ASF E:\Steps\Project 1\Capture day 1\Session 2\Subject.ASF
:FULLY-SPECIFIED
:DEGREES
869
root 24.1718 15.8528 -8.50689 33.9204 78.5058 15.4519
lowerback -28.3571 -1.29858 -7.80368
upperback 0.476375 1.51394 -2.62165
thorax 15.5234 0.254384 2.00436
lowerneck 0.993561 2.74101 -1.52297
upperneck 6.03023 3.59423 2.95407
head 1.62233 1.84178 1.21715
rclavicle -1.2424e-014 -2.38542e-015
rhumerus -32.1567 -18.1685 -81.1992
rradius 24.396
rwrist 4.3491
rhand 35.5929 -64.5281
rfingers 7.12502
rthumb 58.6525 -79.6492
lclavicle -1.2424e-014 -2.38542e-015
lhumerus -25.1233 5.2319 80.401
lradius 20.8811
lwrist -3.51975
lhand -21.6148 -10.2491
lfingers 7.12502
lthumb 4.78072 19.677
rfemur -33.5089 -1.40359 18.0193
rtibia 71.0802
rfoot -10.8046 -10.4307
rtoes -29.889
lfemur -35.736 -6.28487 -21.2842
ltibia 17.5976
lfoot -0.96618 5.31036
ltoes -39.584
870
root 24.2535 15.8808 -8.52231 33.8741 78.5179 15.3598
lowerback -28.2105 -1.40153 -7.64476
upperback 0.507854 1.30266 -2.58818
thorax 15.5121 0.17031 1.87278
lowerneck 0.902735 2.88294 -1.35874
upperneck 6.03887 3.79467 2.67364
head 1.64333 1.93973 1.1046
rclavicle 2.11706e-014 -6.12257e-014
rhumerus -32.3871 -18.2403 -80.9043
rradius 24.307
rwrist 5.04168
rhand 36.1493 -64.7195
rfingers 7.12502
rthumb 59.1338 -79.378
lclavicle 2.11706e-014 -6.12257e-014
lhumerus -24.5929 4.81342 80.4863
lradius 22.026
lwrist -2.53356
lhand -21.5447 -10.5121
lfingers 7.12502
lthumb 4.84841 19.4124
rfemur -34.6353 -0.532929 18.1287
rtibia 71.2355
rfoot -11.3485 -10.4523
rtoes -31.5028
lfemur -35.3045 -6.24744 -21.4722
ltibia 17.346
lfoot -1.06481 5.16818
ltoes -39.0654
871
root 24.3364 15.9078 -8.53704 33.3211 78.6642 14.7408
lowerback -28.0647 -1.42304 -7.32872
upperback 0.502546 1.15201 -2.5951
thorax 15.4577 0.129275 1.63643
lowerneck 1.04529 2.72031 -1.52167
upperneck 6.00358 3.56675 2.93196
head 1.60582 1.82692 1.20816
rclavicle -8.94531e-016 -2.94201e-014
rhumerus -32.71 -18.6052 -80.5726
rradius 24.2135
rwrist 5.45984
rhand 36.5014 -64.8886
rfingers 7.12502
rthumb 59.4372 -79.2464
lclavicle -8.94531e-016 -2.94201e-014
lhumerus -23.967 5.00919 80.5552
lradius 22.8983
lwrist -2.5313
lhand -21.5187 -11.4808
lfingers 7.12502
lthumb 4.87356 18.4432
rfemur -35.7258 -0.422778 18.191
rtibia 70.9179
rfoot -12.1361 -9.69828
rtoes -29.0647
lfemur -34.8223 -6.77634 -21.281
ltibia 16.9726
lfoot -1.15499 5.61689
ltoes -38.952
872
root 24.4145 15.9313 -8.54326 32.0834 78.8757 13.5033
lowerback -27.84 -1.50788 -7.11643
upperback 0.559151 0.91178 -2.41045
thorax 15.4354 0.0273427 1.63052
lowerneck 1.37205 2.64195 -1.55947
upperneck 5.51027 3.45847 3.02799
head 1.39292 1.76775 1.22895
rclavicle -9.74045e-015 6.59965e-014
rhumerus -33.0322 -19.6154 -79.8595
rradius 24.1349
rwrist 6.45664
rhand 36.4892 -64.8724
rfingers 7.12502
rthumb 59.4267 -79.2408
lclavicle -9.74045e-015 6.59965e-014
lhumerus -23.7427 2.37294 81.0562
lradius 24.581
lwrist -0.0659012
lhand -22.2652 -11.4664
lfingers 7.12502
lthumb 4.15265 18.4729
rfemur -36.7856 -0.277099 18.5463
rtibia 70.506
rfoot -12.6129 -9.37622
rtoes -30.0986
lfemur -34.3033 -6.83355 -21.0495
ltibia 16.6325
lfoot -1.24673 5.62572
ltoes -38.699
873
root 24.4871 15.952 -8.5454 31.283 79.0283 12.6649
lowerback -27.6465 -1.72584 -7.06547
upperback 0.630505 0.543551 -2.15944
thorax 15.4505 -0.147848 1.73485
lowerneck 1.21807 2.75073 -1.95186
upperneck 5.37706 3.60419 3.00129
head 1.36806 1.83086 1.28892
rclavicle 1.59028e-014 3.97569e-015
rhumerus -33.368 -20.4521 -79.1623
rradius 24.2704
rwrist 7.22986
rhand 35.2 -64.7299
rfingers 7.12502
rthumb 58.3113 -80.1686
lclavicle 1.59028e-014 3.97569e-015
lhumerus -23.5145 1.16475 81.4236
lradius 26.1499
lwrist 0.860662
lhand -23.2914 -10.5606
lfingers 7.12502
lthumb 3.16166 19.3957
rfemur -37.6809 0.581481 18.8148
rtibia 69.8847
rfoot -13.2061 -9.45839
rtoes -31.4222
lfemur -33.9333 -6.26699 -21.1243
ltibia 16.4094
lfoot -1.29645 5.05589
ltoes -38.9906
